# xmcd
#
# Track frame offsets: 
#        150
#        33475
#        71850
#        105000
#        134800
#        166600
#        196875
#        225900
#        266050
#        294662
#        311300
#
# Disc length: 4541 seconds
#
# Revision: 0
# Processed by: cddbd v1.5.2PL0 Copyright (c) Steve Scherf et al.
# Submitted via: ExactAudioCopy v1.0b3
#
DISCID=9211bb0b
DTITLE=Various Artist - Trance Addiction Vol. 3 - CD 1
DYEAR=1900
DGENRE=
TTITLE0=Blank and Jones - Beyond Time (Darude Vs. JS 16 Rmx)
TTITLE1=Gourylla - Tenshi (Original Xtd Mix)
TTITLE2=Fragma - Everytime You Need Me (Pulsedriver Mix)
TTITLE3=The Venture - Alaska (Point Barrow Mix)
TTITLE4=4 Strings - Daytime (Original Mix)
TTITLE5=PTS - Trance Atlantica (Scott Rooney Mix)
TTITLE6=ATB Feat. York - The Fields Of Love (Original Club Mix)
TTITLE7=York - Farewell To The Moon (ATB Mix)
TTITLE8=Diablo - Remember 2001 (Club Mix)
TTITLE9=Frost - Acid Phase (Single Mix)
TTITLE10=Legend B - Strinx Of Life (Planet Traxx Mix)
EXTD=
EXTT0=
EXTT1=
EXTT2=
EXTT3=
EXTT4=
EXTT5=
EXTT6=
EXTT7=
EXTT8=
EXTT9=
EXTT10=
PLAYORDER=
